<?xml version="1.0" encoding="utf-8"?>
<!-- Generator: Adobe Illustrator 24.1.2, SVG Export Plug-In . SVG Version: 6.00 Build 0)  -->
<svg version="1.1" id="Layer_1" xmlns="http://www.w3.org/2000/svg" xmlns:xlink="http://www.w3.org/1999/xlink" x="0px" y="0px"
	 viewBox="0 0 33.3 32.7" style="enable-background:new 0 0 33.3 32.7;" xml:space="preserve">
<path d="M3.9,0l2.6,3.6L1.7,4.9l2.4,1.3c-2.6,2.7-4.4,7.2-4,14v12.5h10.4v0h7.1c-1-4.2-1.1-7.8-0.4-10.5c-1.2-0.6-1.8-1.2-2.3-2.1
	c3.6,1.5,9,2.5,14.1,1.3c-1.6-0.7-3.3-1.6-4.9-2.6c0,0,0,0,0,0c-1.3-0.7-2.5-1.6-3.5-2.6c-0.7-0.6-1.3-1.1-1.9-1.7
	c2.5-1.8,5.4-2.8,8.3-3.3c-0.5,0.4-1.1,0.8-1.6,1.2c-1.3,1.1-2.4,2.3-3.2,3.6c0.3,0.3,0.7,0.5,1.1,0.8c0.6-1.1,1.7-2.3,3-3.4
	c1.7-1.4,3.7-2.4,4.9-2.5h0c0.8,0,1.5,0.1,2.3,0.1c-0.8-0.5-1.5-1-2.3-1.4v0c0,0,0,0,0,0c-3.9-2.1-7.8-2.9-11.8-2.6
	c-1.5-1.7-3.4-2.9-5.5-3.4L3.9,0L3.9,0z M9.2,7.5c0.3,0,0.6,0.1,0.9,0.1c-0.6,0.2-1,0.8-1,1.4c0,0.8,0.7,1.5,1.5,1.5
	c0.7,0,1.3-0.5,1.4-1.1c0.1,0.3,0.2,0.7,0.2,1.1c0,1.7-1.4,3-3,3c-1.7,0-3-1.4-3-3C6.1,8.9,7.5,7.5,9.2,7.5L9.2,7.5z"/>
</svg>
