<svg xmlns="http://www.w3.org/2000/svg" viewBox="0 0 33.31 32.66"><defs><style>.cls-1{fill:#fff066;}</style></defs><g id="Layer_2" data-name="Layer 2"><g id="Layer_1-2" data-name="Layer 1"><path class="cls-1" d="M3.93,0,6.49,3.6,1.65,4.91l2.44,1.3C1.44,8.88-.3,13.44,0,20.2V32.66H17.46a23.27,23.27,0,0,1-.39-10.54A4.76,4.76,0,0,1,14.77,20a24.2,24.2,0,0,0,14.09,1.3,34.41,34.41,0,0,1-4.92-2.61h0a19.25,19.25,0,0,1-3.51-2.56q-1-.82-1.89-1.74a19.87,19.87,0,0,1,8.34-3.3,17.9,17.9,0,0,0-1.59,1.2,14.11,14.11,0,0,0-3.19,3.56c.34.28.7.54,1.08.8a13.23,13.23,0,0,1,2.95-3.35A10.15,10.15,0,0,1,31,10.79h0a20.92,20.92,0,0,1,2.26.15A26.49,26.49,0,0,0,31,9.49v0h0A20.51,20.51,0,0,0,19.16,6.9a10.78,10.78,0,0,0-5.53-3.37L3.93,0ZM9.16,7.55a3.24,3.24,0,0,1,.94.14A1.49,1.49,0,1,0,12,9.47a3.17,3.17,0,0,1,.21,1.11,3,3,0,1,1-3-3Z"/></g></g></svg>